<svg width="80" height="108" viewBox="0 0 80 108" fill="none" xmlns="http://www.w3.org/2000/svg">
<path d="M48.1192 31.6617V31.7248L48.1159 31.7887L48.1101 31.8502L48.1011 31.9133L48.0912 31.9764L48.078 32.0378L48.0607 32.0993L48.0426 32.1599L48.0204 32.2189L47.9965 32.2779L47.971 32.3361L47.9422 32.3926L47.9118 32.4467L47.878 32.5024L47.8426 32.554L47.8048 32.6049L47.7653 32.6548L47.7241 32.7015L47.6797 32.7483L47.6344 32.7917L47.5866 32.8343L47.5373 32.8744L47.4862 32.9121L47.4344 32.9474L47.3801 32.9818L47.3257 33.0137L47.269 33.0424L47.2113 33.0686L46.8196 33.2301L46.4212 33.3743L46.0179 33.5029L45.6097 33.6144L45.1965 33.7094L44.7784 33.7856L44.3603 33.8455L43.9373 33.8856L43.515 33.9102L43.092 33.9184L42.6681 33.9061L42.5216 33.8963L42.2459 33.8774L41.8237 33.8307L41.4048 33.7668L40.9899 33.6865L40.5768 33.5865L40.1694 33.4718L39.7669 33.3391L39.371 33.1891L38.9801 33.0236L38.599 32.8433L38.2237 32.6442L37.8591 32.4311L37.5019 32.205L37.1554 31.9616L36.8196 31.7043L36.4945 31.4339L36.1801 31.1504L35.8797 30.8529L35.5916 30.544L35.3159 30.2236L35.0541 29.8909L34.8072 29.5484L34.5751 29.1952L34.3578 28.8339L34.1554 28.4627L33.9694 28.0841L33.7998 27.6981L33.6451 27.3048L33.5076 26.9049L33.3875 26.501L33.2846 26.0913L33.1982 25.6791L33.129 25.2628L33.0797 24.8433L33.0459 24.4237L33.0303 24.0017L33.0327 23.5797L33.0525 23.1577L33.0904 22.7382L33.1463 22.3194L33.2196 21.904L33.3101 21.4918L33.4171 21.0846L33.5422 20.6814L33.6829 20.2832L33.8418 19.8915L34.0155 19.5072L34.2064 19.1303L34.4122 18.7615L34.6336 18.4018L34.8698 18.0511L35.1208 17.7118L35.3867 17.3832L35.664 17.0653L35.957 16.7588L36.2615 16.4655L36.5776 16.1861L36.9043 15.9173L37.2443 15.6641L37.5924 15.4256L37.9529 15.2019L38.32 14.993L38.6978 14.7996L39.0813 14.6218L39.4731 14.4604L39.8714 14.3153L40.2739 14.1875L40.6838 14.076L41.0961 13.981L41.5134 13.9056L41.9323 13.845L42.3546 13.804L42.5323 13.7942L42.7784 13.7802L43.2006 13.7737L43.6245 13.7843L44.0476 13.813L44.469 13.8597L44.8879 13.9236L45.3027 14.0056L45.715 14.1039L46.1233 14.2186L46.5249 14.3514L46.9216 14.5005L46.9784 14.5292L47.0336 14.5587L47.0895 14.5915L47.1414 14.6275L47.1932 14.6644L47.2434 14.7045L47.2912 14.7463L47.3381 14.7898L47.3825 14.8348L47.4245 14.8824L47.4657 14.9307L47.5027 14.9815L47.5406 15.034L47.5743 15.088L47.6064 15.1429L47.6352 15.1978L47.6632 15.2568L47.6871 15.315L47.7093 15.374L47.7282 15.4347L47.7447 15.4953L47.7595 15.5576L47.7718 15.6198L47.7817 15.6829L47.7875 15.746L47.7916 15.8091L47.7924 15.873L47.7916 15.9361L47.7875 16.0001L47.7801 16.0632L47.7702 16.1246L47.7595 16.1877L47.7447 16.25L47.7274 16.3106L47.7068 16.3713L47.6854 16.4311L47.6599 16.4893L47.6327 16.5458L47.6031 16.6032L47.571 16.6572L47.5364 16.7113L47.5011 16.7638L47.4624 16.8129L47.4212 16.8629L47.3784 16.9088L47.3332 16.9547L47.2879 16.9973L47.2393 17.0399L47.1891 17.0784L47.1373 17.1161L47.0838 17.1513L47.0295 17.1841L46.9735 17.2144L46.9159 17.2415L46.8583 17.2685L46.799 17.2915L46.7389 17.312L46.678 17.33L46.6155 17.3455L46.5537 17.3595L46.4904 17.3701L46.4278 17.3775L46.3636 17.3832L46.2994 17.3849L46.236 17.3841L46.1727 17.3816L46.1093 17.3767L46.0467 17.3685L45.9834 17.3578L45.92 17.3455L45.8591 17.3292L45.8138 17.3144L45.7883 17.3046L45.655 17.2538L45.5109 17.1997L45.2303 17.1071L44.9447 17.026L44.655 16.958L44.3653 16.9006L44.0714 16.8564L43.7768 16.8228L43.4813 16.8031L43.1842 16.7957L42.8879 16.7998L42.5924 16.8162L42.534 16.8219L42.2969 16.8465L42.0023 16.8875L41.7118 16.9416L41.422 17.0071L41.1364 17.0858L40.8533 17.1751L40.576 17.2759L40.3019 17.3882L40.0319 17.5135L39.7694 17.6479L39.5109 17.7954L39.2599 17.9519L39.0146 18.1199L38.7776 18.2969L38.548 18.4829L38.3274 18.6796L38.1142 18.8852L37.9101 19.0991L37.7142 19.3228L37.529 19.5523L37.3537 19.7907L37.1875 20.0349L37.0336 20.2873L36.8895 20.5446L36.7562 20.8093L36.6327 21.078L36.5233 21.3517L36.4229 21.6303L36.3364 21.913L36.2615 22.1974L36.1982 22.4858L36.1471 22.7775L36.1085 23.07L36.0813 23.365L36.0673 23.6592L36.0657 23.955L36.0764 24.25L36.0994 24.5442L36.1356 24.8367L36.1834 25.1293L36.2434 25.4185L36.3159 25.7037L36.3998 25.9872L36.4953 26.2658L36.6039 26.5419L36.7225 26.8123L36.8533 27.0778L36.9949 27.3368L37.1463 27.5916L37.3093 27.8366L37.4829 28.0775L37.6657 28.3103L37.8591 28.5331L38.0599 28.7503L38.2714 28.9584L38.4904 29.1575L38.7183 29.346L38.9529 29.5263L39.1957 29.6967L39.4451 29.8557L39.7019 30.0048L39.9636 30.1425L40.2311 30.2695L40.5035 30.3859L40.7809 30.4907L41.0632 30.5825L41.348 30.6645L41.636 30.7325L41.9274 30.7898L42.2212 30.8341L42.5159 30.8677L42.5241 30.8685L42.8113 30.8873L43.1076 30.8947L43.4048 30.8906L43.7002 30.8742L43.9949 30.8439L44.2887 30.8029L44.5809 30.7489L44.869 30.6825L45.1554 30.6055L45.4385 30.5153L45.7167 30.4145L45.9834 30.3039L46.05 30.2761L46.1093 30.2556L46.171 30.2367L46.2319 30.2187L46.2936 30.2048L46.3562 30.1933L46.4196 30.1835L46.4821 30.1777L46.5455 30.1744L46.6089 30.1736L46.6731 30.1744L46.7364 30.1794L46.799 30.1867L46.8615 30.1957L46.9249 30.208L46.9858 30.2236L47.0467 30.2408L47.1085 30.2597L47.1669 30.2826L47.227 30.3072L47.2838 30.3351L47.3397 30.3637L47.3941 30.3965L47.4476 30.4301L47.4994 30.4678L47.5496 30.5063L47.5982 30.5456L47.6459 30.5891L47.692 30.6333L47.7348 30.6792L47.7759 30.7284L47.8146 30.7775L47.8525 30.8283L47.8871 30.8816L47.92 30.9365L47.9488 30.9922L47.9776 31.0496L48.0031 31.1069L48.027 31.1651L48.0467 31.2249L48.0657 31.2872L48.0813 31.3479L48.0936 31.4093L48.1035 31.4716L48.1109 31.5347L48.1159 31.5986L48.1192 31.6617Z" fill="white"/>
<path d="M56.5724 40.2157L56.6267 40.2181L56.6818 40.2238L56.7353 40.2304L56.7888 40.2378L56.8431 40.2476L56.9485 40.273L57.0012 40.2869L57.0538 40.3033L57.1049 40.3214L57.1559 40.3402L57.2061 40.3607L57.2555 40.3845L57.304 40.4066L57.3526 40.4336L57.3995 40.459L57.4456 40.4877L57.4917 40.5172L57.5361 40.5492L57.5789 40.5811L57.6217 40.6147L57.6637 40.6499L57.6761 40.6606L58.267 41.267L58.9032 41.975L59.5082 42.71L60.0818 43.4696L60.6234 44.253L61.132 45.0568L61.6053 45.8811L62.044 46.7251L62.4473 47.588L62.8135 48.4648L63.1427 49.3571L63.4333 50.2618L63.6859 51.1787L63.8999 52.1038L64.0752 53.0388L64.2102 53.9795L64.3065 54.9251L64.3633 55.8732L64.3789 56.8245L64.3543 57.7743L64.2909 58.7223L64.1872 59.6671L64.0431 60.6062L63.8612 61.5395L63.639 62.4638L63.3789 63.3775L63.0802 64.2805L62.7435 65.1696L62.3699 66.0431L61.96 66.9026L61.5139 67.7425L61.0333 68.5644L60.518 69.3634L59.9699 70.141L59.3896 70.8965L58.7798 71.6258L58.137 72.3297L57.4662 73.0065L56.7691 73.6539L56.0423 74.2709L55.2925 74.8584L54.5172 75.4132L53.7213 75.9368L52.9016 76.426L52.0637 76.8791L51.2077 77.2987L50.3328 77.6813L49.444 78.0279L48.5419 78.336L47.6267 78.6073L46.7007 78.84L45.7666 79.0342L44.8259 79.1891L43.8777 79.3038L42.9254 79.3792L41.9724 79.4152L41.3222 79.4119H41.3205L41.0184 79.4103L40.0637 79.3677L39.1131 79.2841L38.1674 79.1612L37.2259 78.999L36.2942 78.7974L35.3699 78.5565L34.458 78.2787L33.5567 77.9616L32.6719 77.6092L31.8012 77.2183L30.9477 76.7923L30.1131 76.3317L29.2983 75.8352L28.5057 75.3066L27.737 74.7445L26.9913 74.1521L26.2703 73.5268L25.5773 72.8738L24.9131 72.192L24.2769 71.484L23.6719 70.749L23.0966 69.9894L22.5559 69.206L22.0481 68.4022L21.574 67.5778L21.1345 66.7338L20.7329 65.871L20.3666 64.9942L20.0374 64.1018L19.746 63.1964L19.4933 62.2794L19.2794 61.3543L19.1049 60.4202L18.9691 59.4795L18.9189 58.9903L18.8983 58.7895L18.8975 58.7617L18.8983 58.6912L18.9016 58.6191L18.909 58.5486L18.9189 58.4773L18.9304 58.4077L18.9468 58.338L18.9649 58.27L18.9863 58.2012L19.0102 58.134L19.0366 58.0676L19.067 58.0029L19.0991 57.939L19.1345 57.8767L19.1724 57.816L19.2119 57.757L19.2547 57.7005L19.2991 57.6448L19.3477 57.5915L19.3962 57.5399L19.4481 57.4899L19.5008 57.444L19.5567 57.399L19.6152 57.3555L19.6744 57.3154L19.7345 57.2777L19.797 57.2425L19.8604 57.2105L19.9254 57.1802L19.9921 57.154L20.0588 57.1294L20.1263 57.1081L20.1962 57.0892L20.2366 57.0802L20.2662 57.0737L20.337 57.0605L20.4069 57.0499L20.4794 57.045L20.5501 57.0401L20.6217 57.0392L20.6456 57.0401L20.6925 57.0417L20.7649 57.0458L20.8357 57.054L20.9065 57.0646L20.9773 57.0802L21.0473 57.0958L21.1156 57.1163L21.1831 57.1384L21.2497 57.1646L21.3164 57.1925L21.3806 57.2236L21.4431 57.2564L21.4711 57.2728L21.5057 57.2924L21.5658 57.3309L21.6234 57.3727L21.6802 57.417L21.7353 57.4629L21.788 57.5112L21.8398 57.5612L21.8868 57.6136L21.9337 57.6686L21.9773 57.7243L22.0193 57.7816L22.0588 57.8414L22.095 57.9029L22.1287 57.966L22.16 58.0299L22.1888 58.0955L22.2143 58.1618L22.2374 58.229L22.2571 58.297L22.2744 58.3667L22.2884 58.4364L22.2991 58.5068L22.309 58.5781V58.5855L22.3337 58.8256L22.3378 58.8592L22.3617 59.0665L22.3929 59.3074L22.4275 59.5483L22.4431 59.654L22.4456 59.6655L22.4645 59.7868L22.5049 60.0252L22.5477 60.2637L22.5938 60.5013L22.6423 60.7397L22.695 60.9766L22.7493 61.2117L22.7575 61.2437L22.8077 61.4486L22.8687 61.6829L22.9337 61.9164L22.9625 62.0189L22.9633 62.0246L22.9666 62.0328L22.9987 62.1492L23.0703 62.3811L23.1419 62.6121L23.2184 62.8432L23.2966 63.0726L23.3781 63.3013L23.4629 63.5282L23.4736 63.5594L23.5501 63.7536L23.6398 63.9797L23.7329 64.2035L23.7748 64.3018L23.7773 64.3083L23.7806 64.3141L23.8283 64.4255L23.9271 64.6484L24.0283 64.8688L24.1329 65.0868L24.239 65.3056L24.3485 65.5211L24.4612 65.7366L24.4769 65.7653L24.5765 65.9505L24.6933 66.1619L24.8143 66.3733L24.8687 66.4651L24.8719 66.47L24.8752 66.4765L24.9378 66.5814L25.0637 66.7887L25.1913 66.9952L25.3222 67.1993L25.4555 67.4025L25.5913 67.6032L25.7296 67.8032L25.7493 67.8294L25.8711 67.9998L26.0143 68.1957L26.1608 68.3899L26.2259 68.4751L26.23 68.4792L26.2349 68.4849L26.3098 68.5825L26.4604 68.7717L26.6127 68.961L26.7691 69.1462L26.9271 69.3314L27.0868 69.5133L27.2489 69.6936L27.2719 69.7182L27.4143 69.8722L27.5814 70.0492L27.751 70.2238L27.8259 70.2991L27.8357 70.309L27.9222 70.3958L28.0958 70.5646L28.2711 70.7326L28.4497 70.8981L28.6291 71.062L28.8102 71.2226L28.9946 71.3808L29.0201 71.4021L29.1806 71.5381L29.3682 71.6913L29.5584 71.8429L29.6423 71.9093L29.653 71.9183L29.7501 71.9929L29.9436 72.1396L30.1386 72.2838L30.3361 72.4264L30.5353 72.5657L30.7361 72.7033L30.9386 72.8369L30.9666 72.8557L31.1427 72.9688L31.3485 73.0991L31.5559 73.2253L31.6489 73.281L31.6538 73.2843L31.6596 73.2876L31.7649 73.3499L31.9756 73.472L32.188 73.5908L32.4012 73.7071L32.616 73.8202L32.8324 73.9316L33.0497 74.0398L33.0802 74.0537L33.2695 74.1455L33.4892 74.2488L33.7115 74.3479L33.8094 74.3905L33.816 74.3938L33.8226 74.3963L33.9345 74.4454L34.1592 74.5397L34.3847 74.6314L34.6102 74.7199L34.8382 74.806L35.067 74.8895L35.2958 74.9682L35.3279 74.9789L35.5271 75.0452L35.7592 75.1206L35.9913 75.1919L36.0942 75.2222L36.1008 75.2239L36.1073 75.2263L36.225 75.2608L36.4596 75.3255L36.695 75.3886L36.9304 75.4484L37.1666 75.5058L37.4053 75.559L37.6431 75.6106L37.6752 75.6164L37.881 75.6582L38.1197 75.7032L38.3592 75.745L38.4662 75.7622L38.4785 75.7647L38.6003 75.7835L38.8407 75.8204L39.0818 75.8524L39.3238 75.8819L39.5649 75.9089L39.8077 75.9335L40.0497 75.954L40.0835 75.9556L40.2925 75.972L40.5353 75.9859L40.7798 75.9991L40.8859 76.0015H40.8933L40.8999 76.0032L41.0226 76.0072L41.1954 76.0113H41.1962L41.2662 76.013L41.509 76.0146L41.7518 76.0138L41.9962 76.0105L42.239 76.004L42.4826 75.9941L42.5147 75.9925L42.7254 75.9818L42.9682 75.9663L43.2102 75.9474L43.318 75.9376L43.3254 75.9368H43.332L43.4547 75.9261L43.6958 75.8999L43.9378 75.872L44.1789 75.8425L44.4201 75.8081L44.6612 75.7704L44.9007 75.7311L44.9328 75.7245L45.1403 75.6877L45.3789 75.6426L45.6184 75.5934L45.723 75.5705L45.7296 75.5689L45.7353 75.5672L45.8547 75.541L46.0925 75.4861L46.3287 75.4287L46.5641 75.3673L46.7995 75.3042L47.0341 75.2378L47.267 75.1682L47.2983 75.1591L47.4991 75.096L47.7304 75.0198L47.9608 74.942L48.0621 74.9059L48.0678 74.9043L48.0744 74.9018L48.1905 74.8617L48.4176 74.7765L48.6456 74.6904L48.8711 74.6003L49.0975 74.5085L49.3205 74.4135L49.5427 74.3143L49.5732 74.3004L49.7641 74.2127L49.9847 74.1103L50.2036 74.0038L50.2999 73.9554L50.3049 73.9521L50.3106 73.9497L50.4201 73.894L50.6374 73.7817L50.8505 73.6678L51.0645 73.5506L51.2761 73.431L51.4859 73.3081L51.6942 73.1835L51.7221 73.1663L51.9008 73.0557L52.1057 72.9246L52.3098 72.7918L52.3995 72.732L52.4045 72.7287L52.4102 72.7263L52.5115 72.6574L52.7123 72.5198L52.9106 72.378L53.1065 72.2363L53.3024 72.0904L53.4958 71.9429L53.6859 71.793L53.7115 71.7725L53.8752 71.6397L54.0621 71.4848L54.2464 71.3283L54.3287 71.2579L54.3378 71.2497L54.4308 71.1686L54.6119 71.0079L54.7905 70.8416L54.9691 70.6769L55.1435 70.5081L55.3156 70.3377L55.4868 70.1648L55.509 70.141L55.6547 69.9902L55.8209 69.8124L55.9855 69.633L56.0563 69.5535L56.0604 69.5494L56.0645 69.5445L56.1477 69.4535L56.3065 69.2691L56.4637 69.0839L56.6184 68.8971L56.7707 68.7086L56.9213 68.5177L57.0687 68.3243L57.0876 68.2989L57.2135 68.1293L57.3567 67.9343L57.4966 67.7352L57.5567 67.6475L57.5608 67.6418L57.5649 67.6368L57.6341 67.536L57.7691 67.3336L57.9016 67.1304L58.0316 66.9264L58.1592 66.7199L58.2843 66.5109L58.4061 66.3012L58.4217 66.2725L58.5254 66.0906L58.6431 65.8784L58.7567 65.6637L58.8053 65.5686L58.8086 65.5629L58.8119 65.558L58.8687 65.4482L58.9756 65.2326L59.0826 65.013L59.1855 64.7934L59.2868 64.5722L59.3847 64.3518L59.4777 64.1272L59.4909 64.0969L59.5707 63.9035L59.6596 63.6782L59.7452 63.4512L59.7831 63.3504L59.7839 63.3439L59.7872 63.339L59.8291 63.2242L59.9098 62.9956L59.9872 62.7654L60.0612 62.5343L60.1345 62.3032L60.2036 62.0713L60.2687 61.8378L60.2777 61.8058L60.332 61.6034L60.3921 61.3682L60.4481 61.1323L60.4728 61.029L60.4752 61.0225V61.0151L60.5032 60.8963L60.5534 60.6594L60.602 60.4218L60.6473 60.1834L60.6892 59.9449L60.7287 59.7056L60.7649 59.4655L60.7699 59.4336L60.7979 59.2263L60.8275 58.9854L60.8547 58.7445L60.8654 58.6379L60.8662 58.6314V58.6248L60.8777 58.5027L60.8983 58.2618L60.9164 58.0201L60.932 57.7784L60.9436 57.5358L60.9526 57.2941L60.9575 57.0523L60.9584 57.0187L60.96 56.8106V56.5672L60.9567 56.3255L60.9534 56.2174V56.2051L60.9493 56.083L60.9403 55.8396L60.9263 55.5979L60.9114 55.3578L60.8933 55.1152L60.8703 54.8735L60.8456 54.6334L60.8415 54.5998L60.8176 54.3909L60.7872 54.1516L60.7526 53.9123L60.7361 53.805L60.7345 53.7935L60.7147 53.6722L60.6752 53.4338L60.6316 53.1953L60.5855 52.9569L60.5378 52.7192L60.4851 52.4824L60.43 52.2464L60.4217 52.2136L60.3724 52.0121L60.3106 51.7761L60.2464 51.5425L60.2176 51.4393L60.216 51.4344L60.2127 51.427L60.1806 51.3098L60.1098 51.0779L60.0374 50.8469L59.9617 50.6158L59.8826 50.3863L59.8012 50.1577L59.7164 49.9307L59.7057 49.8996L59.6291 49.7054L59.5403 49.4792L59.4464 49.2555L59.4045 49.1572L59.4028 49.1506L59.3995 49.1449L59.351 49.0335L59.2522 48.8106L59.151 48.5902L59.0473 48.3722L58.9403 48.1542L58.8308 47.9379L58.718 47.7224L58.7032 47.6937L58.6028 47.5085L58.4859 47.2971L58.3658 47.0857L58.3106 46.9939L58.3073 46.989L58.304 46.9824L58.2423 46.8776L58.1164 46.6702L57.9888 46.4638L57.8571 46.2605L57.7238 46.0565L57.588 45.8557L57.4489 45.6558L57.4308 45.6296L57.3082 45.4591L57.1649 45.2633L57.0184 45.0683L56.9534 44.9847L56.9493 44.9798L56.9452 44.974L56.8695 44.8765L56.7197 44.6872L56.5666 44.4988L56.4843 44.4004L56.0069 44.7225L40.2036 55.3709L40.1444 55.4094L40.0818 55.4463L40.0184 55.4782L39.9543 55.5102L39.8876 55.5372L39.8209 55.5626L39.7534 55.5839L39.6835 55.6044L39.6143 55.6208L39.6119 55.6216L39.5452 55.6331L39.4728 55.6454L39.4028 55.6519L39.3312 55.6569L39.2604 55.6593L39.188 55.6569L39.1345 55.6544L39.1164 55.6536L39.0448 55.6462L38.974 55.6364L38.904 55.6224L38.8851 55.6184L38.8349 55.6069L38.7649 55.5872L38.6966 55.5659L38.6291 55.5421L38.5641 55.5143L38.4991 55.484L38.4357 55.4512L38.3724 55.416L38.3123 55.3774L38.253 55.3373L38.2489 55.334L38.197 55.2939L38.1411 55.2496L38.0876 55.2021L38.0357 55.1521L37.988 55.1005L37.9403 55.0472L37.895 54.9915L37.853 54.9325L37.8135 54.8735L37.7756 54.8129L37.7419 54.7506L37.7098 54.6875L37.6802 54.6228L37.6538 54.5564L37.63 54.4884L37.6086 54.4204L37.5905 54.3515L37.5748 54.2811L37.5633 54.2122L37.5551 54.1409L37.5468 54.0705L37.5452 53.9984L37.5435 53.9279L37.5468 53.8566L37.5526 53.7853L37.5608 53.714L37.574 53.6444L37.588 53.5747L37.6061 53.5051L37.6259 53.437L37.6489 53.3699L37.6761 53.3035L37.704 53.2379L37.7361 53.174L37.7699 53.1117L37.8069 53.0511L37.8473 52.9905L37.8876 52.9339L37.9328 52.8774L37.9789 52.8241L38.0275 52.7717L38.0794 52.7209L38.1329 52.6733L38.188 52.6266L38.2431 52.584L54.8645 40.9949L55.746 40.3804L55.7773 40.3648L55.8275 40.3451L55.8777 40.3246L55.9296 40.3066L55.9822 40.2902L56.0341 40.2755L56.0868 40.2624L56.1271 40.2533H56.1279L56.1394 40.2509L56.1938 40.2402L56.2464 40.232L56.2999 40.2247L56.3551 40.2197L56.4102 40.2165L56.4283 40.2157H56.5724Z" fill="white"/>
<path d="M14.9273 88.1052C14.6582 87.8299 14.3536 87.625 14.0154 87.4915C13.6771 87.3571 13.3322 87.2899 12.98 87.2899C12.91 87.2899 12.8417 87.2924 12.7734 87.2981C12.5215 87.3178 12.2787 87.3735 12.0425 87.4653C11.7421 87.5824 11.4705 87.7611 11.2294 88.002C10.9808 88.2494 10.7973 88.5313 10.6804 88.8476C10.5627 89.1639 10.5092 89.4884 10.5199 89.8219C10.5298 90.1554 10.6022 90.484 10.7372 90.8069C10.8713 91.1305 11.0705 91.4222 11.3331 91.6836C11.4154 91.7664 11.5108 91.8483 11.6178 91.9311C11.7248 92.0139 11.8368 92.0966 11.9545 92.1786C12.0508 92.2474 12.1545 92.3236 12.2647 92.4055C12.375 92.4883 12.4771 92.5711 12.5709 92.653C12.6639 92.7358 12.7413 92.8177 12.8038 92.9005C12.8656 92.9832 12.9001 93.0627 12.9075 93.1381C12.9207 93.2274 12.859 93.3405 12.7207 93.4782C12.603 93.5954 12.4442 93.6535 12.2442 93.6535C12.1701 93.6535 12.0985 93.6462 12.0277 93.6314C11.9405 93.6142 11.8549 93.5855 11.7726 93.5454C11.6244 93.4733 11.4911 93.379 11.3742 93.2619C11.3248 93.2127 11.268 93.1783 11.203 93.1586C11.1668 93.1471 11.1273 93.1406 11.0861 93.1389C11.0787 93.1381 11.0705 93.1381 11.0631 93.1381C11.059 93.1381 11.054 93.1381 11.0499 93.1389C10.9816 93.1406 10.9191 93.1561 10.8623 93.1873C10.8269 93.2061 10.794 93.2307 10.7627 93.2619C10.7043 93.32 10.6656 93.3872 10.6491 93.4642C10.6417 93.4946 10.6384 93.5273 10.6384 93.5609C10.6384 93.6781 10.6804 93.7773 10.7627 93.86C10.9635 94.0591 11.189 94.2173 11.4417 94.3345C11.6294 94.4222 11.8261 94.4762 12.0318 94.4984C12.101 94.5057 12.1726 94.5098 12.2442 94.5098C12.6796 94.5098 13.0417 94.3656 13.3322 94.0764C13.6499 93.7601 13.7948 93.4233 13.7668 93.066C13.7528 92.8939 13.7051 92.7358 13.6219 92.5916C13.5388 92.4465 13.4359 92.3097 13.3117 92.1786C13.1874 92.0483 13.0508 91.9262 12.9018 91.8123C12.7536 91.6992 12.6071 91.591 12.4615 91.4878C12.3586 91.4124 12.2598 91.3403 12.1668 91.2715C12.073 91.2026 11.9989 91.1371 11.9438 91.0748C11.7643 90.8962 11.6277 90.6987 11.5347 90.4824C11.4417 90.2652 11.3899 90.0456 11.3792 89.8219C11.3693 89.599 11.4014 89.3819 11.4779 89.1721C11.5536 88.9623 11.6746 88.7755 11.8401 88.61C11.9989 88.4527 12.175 88.3355 12.3685 88.2593C12.4993 88.2085 12.6343 88.1749 12.775 88.1585C12.8425 88.1503 12.9108 88.1462 12.98 88.1462C13.2211 88.1462 13.4582 88.1929 13.6894 88.2855C13.8466 88.3486 13.9956 88.433 14.1355 88.5403C14.2014 88.5895 14.2647 88.6444 14.3265 88.7034C14.3561 88.7354 14.3874 88.7608 14.4211 88.7804C14.482 88.8181 14.5512 88.837 14.6269 88.837C14.6713 88.837 14.7133 88.8304 14.7528 88.8181C14.8178 88.7968 14.8754 88.7591 14.9273 88.7034C15.0104 88.6206 15.0516 88.5215 15.0516 88.4043C15.0516 88.2871 15.0104 88.1872 14.9273 88.1052Z" fill="white"/>
<path d="M22.5523 90.8995C22.5523 91.3944 22.4535 91.8623 22.2568 92.3023C22.0601 92.7423 21.7909 93.1258 21.4486 93.452C21.107 93.7789 20.7062 94.0362 20.2469 94.2255C19.7877 94.4148 19.2988 94.509 18.7811 94.509C18.2634 94.509 17.7745 94.4148 17.3152 94.2255C16.856 94.0362 16.4551 93.7789 16.1136 93.452C15.772 93.1258 15.5004 92.7423 15.3004 92.3023C15.0996 91.8623 15 91.3944 15 90.8995C15 90.4045 15.1004 89.9366 15.3004 89.4966C15.5004 89.0566 15.772 88.6731 16.1136 88.347C16.4551 88.0208 16.856 87.7627 17.3152 87.5734C17.7745 87.3841 18.2634 87.2899 18.7811 87.2899C19.2988 87.2899 19.7877 87.3841 20.2469 87.5734C20.7062 87.7627 21.107 88.0208 21.4486 88.347C21.7901 88.6731 22.0601 89.0566 22.2568 89.4966C22.4535 89.9366 22.5523 90.4045 22.5523 90.8995ZM18.7811 88.1462C18.3802 88.1462 18.0041 88.2183 17.6519 88.3625C17.2996 88.5067 16.9901 88.705 16.7251 88.9558C16.4593 89.2065 16.2502 89.4991 16.0988 89.8326C15.9465 90.1661 15.8708 90.5217 15.8708 90.9003C15.8708 91.2788 15.9465 91.6345 16.0988 91.968C16.2502 92.3015 16.4593 92.594 16.7251 92.8448C16.9909 93.0955 17.3004 93.293 17.6519 93.438C18.0041 93.5822 18.3802 93.6544 18.7811 93.6544C19.1819 93.6544 19.558 93.5822 19.9103 93.438C20.2626 93.2938 20.5712 93.0963 20.837 92.8448C21.1029 92.594 21.3119 92.3015 21.4634 91.968C21.6148 91.6345 21.6914 91.2788 21.6914 90.9003C21.6914 90.5217 21.6156 90.1661 21.4634 89.8326C21.3111 89.4991 21.1021 89.2073 20.837 88.9558C20.5712 88.705 20.2617 88.5067 19.9103 88.3625C19.558 88.2183 19.1819 88.1462 18.7811 88.1462Z" fill="white"/>
<path d="M23.9107 87.2915C23.8958 87.2907 23.8818 87.2899 23.867 87.2899C23.8522 87.2899 23.8382 87.2907 23.8234 87.2915C23.7246 87.3014 23.6374 87.344 23.5617 87.4194C23.4753 87.5054 23.4316 87.6062 23.4316 87.7234V94.0764C23.4316 94.1935 23.4753 94.2951 23.5617 94.3804C23.6481 94.4672 23.7493 94.5098 23.867 94.5098H25.8975C26.0152 94.5098 26.1164 94.4672 26.2028 94.3804C26.2893 94.2951 26.3329 94.1935 26.3329 94.0764C26.3329 93.9592 26.2893 93.86 26.2028 93.7773C26.1164 93.6953 26.0152 93.6535 25.8975 93.6535H24.2917V87.7234C24.2917 87.6062 24.2506 87.5054 24.1674 87.4194C24.0967 87.3456 24.0135 87.3038 23.9181 87.2924H23.9107V87.2915Z" fill="white"/>
<path d="M33.7398 90.8995C33.7398 91.3944 33.641 91.8623 33.4443 92.3023C33.2476 92.7423 32.9784 93.1258 32.6361 93.452C32.2945 93.7789 31.8937 94.0362 31.4344 94.2255C30.9752 94.4148 30.4863 94.509 29.9686 94.509C29.4509 94.509 28.962 94.4148 28.5027 94.2255C28.0435 94.0362 27.6426 93.7789 27.3011 93.452C26.9595 93.1258 26.6879 92.7423 26.4879 92.3023C26.2871 91.8623 26.1875 91.3944 26.1875 90.8995C26.1875 90.4045 26.2879 89.9366 26.4879 89.4966C26.6879 89.0566 26.9595 88.6731 27.3011 88.347C27.6426 88.0208 28.0435 87.7627 28.5027 87.5734C28.962 87.3841 29.4509 87.2899 29.9686 87.2899C30.4863 87.2899 30.9752 87.3841 31.4344 87.5734C31.8937 87.7627 32.2945 88.0208 32.6361 88.347C32.9776 88.6731 33.2476 89.0566 33.4443 89.4966C33.641 89.9366 33.7398 90.4045 33.7398 90.8995ZM29.9686 88.1462C29.5677 88.1462 29.1916 88.2183 28.8394 88.3625C28.4871 88.5067 28.1776 88.705 27.9126 88.9558C27.6468 89.2065 27.4377 89.4991 27.2863 89.8326C27.134 90.1661 27.0583 90.5217 27.0583 90.9003C27.0583 91.2788 27.134 91.6345 27.2863 91.968C27.4377 92.3015 27.6468 92.594 27.9126 92.8448C28.1784 93.0955 28.4879 93.293 28.8394 93.438C29.1916 93.5822 29.5677 93.6544 29.9686 93.6544C30.3694 93.6544 30.7455 93.5822 31.0978 93.438C31.4501 93.2938 31.7587 93.0963 32.0245 92.8448C32.2904 92.594 32.4994 92.3015 32.6509 91.968C32.8023 91.6345 32.8789 91.2788 32.8789 90.9003C32.8789 90.5217 32.8031 90.1661 32.6509 89.8326C32.4986 89.4991 32.2896 89.2073 32.0245 88.9558C31.7587 88.705 31.4492 88.5067 31.0978 88.3625C30.7455 88.2183 30.3694 88.1462 29.9686 88.1462Z" fill="white"/>
<path d="M40.9047 87.2899C41.4915 87.2899 42.0405 87.4202 42.5516 87.6816C42.6619 87.7365 42.7343 87.8209 42.7689 87.934C42.8034 88.0479 42.7927 88.156 42.7376 88.2593C42.703 88.3347 42.6495 88.3937 42.5771 88.4346C42.5047 88.4756 42.4306 88.4961 42.354 88.4961C42.2775 88.4961 42.2125 88.4789 42.1573 88.4445C41.7705 88.2453 41.3524 88.1454 40.9038 88.1454C40.5236 88.1454 40.1664 88.2175 39.8314 88.3617C39.4964 88.5059 39.2051 88.7042 38.9557 88.955C38.7071 89.2057 38.5104 89.4982 38.3656 89.8317C38.2207 90.1653 38.1483 90.5209 38.1483 90.8995C38.1483 91.278 38.2207 91.6337 38.3656 91.9672C38.5104 92.3007 38.7071 92.5932 38.9557 92.8439C39.2042 93.0947 39.4964 93.2922 39.8314 93.4372C40.1664 93.5814 40.5236 93.6535 40.9038 93.6535C41.4215 93.6535 41.9055 93.5159 42.354 93.2414V90.9101H41.1005C40.9828 90.9101 40.8816 90.8691 40.7952 90.7864C40.7088 90.7036 40.666 90.6045 40.666 90.4873C40.666 90.3701 40.7088 90.2693 40.7952 90.1833C40.8816 90.0972 40.9837 90.0546 41.1005 90.0546H42.7894C42.9071 90.0546 43.0084 90.0972 43.0948 90.1833C43.1812 90.2693 43.224 90.3709 43.224 90.4873V93.4683C43.224 93.606 43.1656 93.7224 43.0479 93.8191C42.4059 94.2796 41.6907 94.5098 40.9038 94.5098C40.4067 94.5098 39.9368 94.4156 39.4948 94.2263C39.0528 94.037 38.6676 93.7797 38.34 93.4528C38.0117 93.1266 37.7532 92.7432 37.5631 92.3031C37.373 91.8631 37.2783 91.3952 37.2783 90.9003C37.2783 90.4053 37.373 89.9374 37.5631 89.4974C37.7532 89.0574 38.0117 88.6739 38.34 88.3478C38.6676 88.0216 39.0528 87.7635 39.4948 87.5742C39.9368 87.3849 40.4067 87.2907 40.9038 87.2907L40.9047 87.2899Z" fill="white"/>
<path d="M48.7566 93.2414C48.5286 93.0349 48.2562 92.8595 47.9385 92.7153C48.3459 92.4605 48.6776 92.1114 48.9327 91.6681C49.1887 91.2248 49.3162 90.7348 49.3162 90.1988C49.3162 89.7998 49.2455 89.4253 49.1039 89.0746C48.9623 88.7239 48.7689 88.4182 48.5236 88.1568C48.2784 87.8954 47.992 87.689 47.6636 87.5374C47.336 87.3866 46.9854 87.3104 46.6125 87.3104L44.5195 87.2899C44.5006 87.2899 44.4825 87.2907 44.4652 87.2932C44.3706 87.3038 44.2866 87.3448 44.2142 87.4136C44.1278 87.4964 44.085 87.5964 44.085 87.7127C44.085 87.7471 44.0883 87.775 44.0948 87.7955C44.0883 87.8094 44.085 87.8299 44.085 87.8577V94.0616C44.0866 94.1763 44.1294 94.2755 44.2142 94.3599C44.2455 94.391 44.2792 94.4164 44.3146 94.4361C44.3689 94.4672 44.4282 94.4836 44.4924 94.4877C44.5014 94.4885 44.5105 94.4885 44.5195 94.4885C44.5269 94.4885 44.5343 94.4885 44.5418 94.4877C44.601 94.4852 44.6553 94.4713 44.7064 94.4459C44.7492 94.4254 44.7887 94.3968 44.8257 94.3599C44.9121 94.2738 44.9549 94.173 44.9549 94.0559V93.0865H45.6701C46.0084 93.0865 46.3327 93.1209 46.6438 93.1897C46.9541 93.2586 47.2339 93.3462 47.4825 93.4528C47.731 93.5593 47.9385 93.6798 48.1039 93.8133C48.1739 93.8699 48.2323 93.9256 48.2792 93.9813C48.3459 94.0583 48.3911 94.1354 48.415 94.2107C48.4422 94.3066 48.494 94.3804 48.5706 94.432C48.5862 94.4426 48.601 94.4517 48.6175 94.4598C48.68 94.4934 48.7475 94.5098 48.8191 94.5098C48.8537 94.5098 48.8981 94.5033 48.9541 94.4885C48.9714 94.4836 48.9878 94.4779 49.0035 94.4713C49.0948 94.4336 49.1631 94.3689 49.2076 94.2779C49.2594 94.1714 49.2677 94.0591 49.2331 93.9428C49.1434 93.6814 48.9845 93.447 48.7566 93.2414ZM47.3269 92.0606C47.1064 92.1671 46.8677 92.2204 46.6125 92.2204H45.6183L44.9549 92.2097V88.1568L46.6125 88.1667C46.8677 88.1667 47.1064 88.2199 47.3269 88.3265C47.5483 88.433 47.7418 88.5797 47.9072 88.7649C48.0726 88.9509 48.2043 89.1656 48.3006 89.4097C48.3977 89.6539 48.4463 89.917 48.4463 90.1988C48.4463 90.4807 48.3977 90.7347 48.3006 90.9822C48.2043 91.2297 48.0726 91.4452 47.9072 91.6271C47.7418 91.809 47.5483 91.9532 47.3269 92.0606Z" fill="white"/>
<path d="M57.6236 90.8995C57.6236 91.3944 57.5256 91.8623 57.3281 92.3023C57.1314 92.7423 56.8622 93.1258 56.5198 93.452C56.1783 93.7789 55.7775 94.0362 55.3182 94.2255C54.8589 94.4148 54.3701 94.509 53.8524 94.509C53.3347 94.509 52.8458 94.4148 52.3865 94.2255C51.9273 94.0362 51.5264 93.7789 51.1849 93.452C50.8433 93.1258 50.5717 92.7423 50.3717 92.3023C50.1717 91.8623 50.0713 91.3944 50.0713 90.8995C50.0713 90.4045 50.1717 89.9366 50.3717 89.4966C50.5717 89.0566 50.8433 88.6731 51.1849 88.347C51.5264 88.0208 51.9273 87.7627 52.3865 87.5734C52.8458 87.3841 53.3347 87.2899 53.8524 87.2899C54.3701 87.2899 54.8589 87.3841 55.3182 87.5734C55.7775 87.7627 56.1783 88.0208 56.5198 88.347C56.8614 88.6731 57.1314 89.0566 57.3281 89.4966C57.5248 89.9366 57.6236 90.4045 57.6236 90.8995ZM53.8532 88.1462C53.4524 88.1462 53.0762 88.2183 52.724 88.3625C52.3717 88.5067 52.0631 88.705 51.7972 88.9558C51.5314 89.2065 51.3223 89.4991 51.1709 89.8326C51.0186 90.1661 50.9429 90.5217 50.9429 90.9003C50.9429 91.2788 51.0186 91.6345 51.1709 91.968C51.3223 92.3015 51.5314 92.594 51.7972 92.8448C52.0631 93.0955 52.3725 93.293 52.724 93.438C53.0762 93.5822 53.4524 93.6544 53.8532 93.6544C54.254 93.6544 54.6301 93.5822 54.9824 93.438C55.3347 93.2938 55.6433 93.0963 55.9091 92.8448C56.175 92.594 56.384 92.3015 56.5355 91.968C56.6877 91.6345 56.7635 91.2788 56.7635 90.9003C56.7635 90.5217 56.6877 90.1661 56.5355 89.8326C56.3832 89.4991 56.175 89.2073 55.9091 88.9558C55.6433 88.705 55.3338 88.5067 54.9824 88.3625C54.6301 88.2183 54.254 88.1462 53.8532 88.1462Z" fill="white"/>
<path d="M63.2391 87.2899C63.3568 87.2899 63.4564 87.3333 63.5396 87.4185C63.6227 87.5046 63.6638 87.6062 63.6638 87.7226V93.6527H64.2128C64.3305 93.6527 64.4301 93.6945 64.5132 93.7765C64.5964 93.8592 64.6375 93.9584 64.6375 94.0755C64.6375 94.1927 64.5964 94.2935 64.5132 94.3795C64.4301 94.4656 64.3305 94.5082 64.2128 94.5082H59.7898C59.6103 94.5082 59.4424 94.4738 59.2877 94.4049C59.1322 94.3361 58.9963 94.2452 58.8787 94.1321C58.761 94.019 58.668 93.883 58.5988 93.7248C58.5297 93.5667 58.4951 93.402 58.4951 93.2299V87.7226C58.4951 87.6054 58.5379 87.5046 58.6243 87.4185C58.7108 87.3325 58.812 87.2899 58.9297 87.2899C59.0474 87.2899 59.1486 87.3333 59.235 87.4185C59.3215 87.5046 59.3643 87.6062 59.3643 87.7226V93.2299C59.3643 93.3471 59.4054 93.4462 59.4885 93.529C59.5717 93.6117 59.6712 93.6527 59.7889 93.6527H62.8038V87.7226C62.8038 87.6054 62.8466 87.5046 62.933 87.4185C63.0194 87.3325 63.1215 87.2899 63.2383 87.2899H63.2391Z" fill="white"/>
<path d="M65.4969 87.7127C65.4969 87.5955 65.5397 87.4964 65.6261 87.4136C65.7126 87.3309 65.8138 87.2899 65.9315 87.2899L66.9051 87.3104C67.2986 87.3104 67.6681 87.3841 68.0138 87.5324C68.3586 87.6799 68.6615 87.8832 68.92 88.1413C69.1792 88.3994 69.3825 88.7018 69.5315 89.0492C69.6796 89.3966 69.7545 89.7662 69.7545 90.1579C69.7545 90.5496 69.6805 90.9191 69.5315 91.2666C69.3833 91.614 69.1792 91.9164 68.92 92.1745C68.6607 92.4326 68.357 92.6374 68.008 92.7882C67.6591 92.9398 67.2879 93.0152 66.8944 93.0152H66.3553V96.2536C66.3553 96.3707 66.3117 96.4715 66.2261 96.5576C66.1397 96.6436 66.0377 96.6862 65.9208 96.6862C65.8039 96.6862 65.7035 96.6436 65.6204 96.5576C65.5372 96.4715 65.4961 96.3699 65.4961 96.2536V87.7135L65.4969 87.7127ZM66.8953 92.1581C67.171 92.1581 67.4319 92.1048 67.6772 91.9983C67.9224 91.8918 68.1348 91.7492 68.3142 91.5706C68.4936 91.3919 68.6368 91.1805 68.7438 90.9363C68.8508 90.6921 68.9043 90.4324 68.9043 90.1579C68.9043 89.8834 68.8508 89.6252 68.7438 89.3843C68.6368 89.1434 68.4936 88.932 68.3142 88.7501C68.1348 88.5682 67.9224 88.4248 67.6772 88.3224C67.4319 88.2191 67.171 88.1675 66.8953 88.1675L66.3562 88.1568V92.1581H66.8953Z" fill="white"/>
<path d="M3.9668 5.78596V102.214C3.9668 103.054 4.65075 103.735 5.49437 103.735H74.5051C75.3487 103.735 76.0326 103.054 76.0326 102.214V5.78596C76.0326 4.94605 75.3487 4.26511 74.5051 4.26511H5.49437C4.65075 4.26511 3.9668 4.94605 3.9668 5.78596ZM73.2763 102.512H6.72318C5.87955 102.512 5.1956 101.831 5.1956 100.991V7.00936C5.1956 6.16945 5.87955 5.48851 6.72318 5.48851H73.2771C74.1207 5.48851 74.8047 6.16945 74.8047 7.00936V100.991C74.8047 101.831 74.1207 102.512 73.2771 102.512L73.2763 102.512Z" fill="white"/>
</svg>
